<mxfile host="app.diagrams.net" agent="Mozilla/5.0 (Windows NT 10.0; Win64; x64) AppleWebKit/537.36 (KHTML, like Gecko) Chrome/135.0.0.0 Safari/537.36" version="26.2.13">
  <diagram name="Página-1" id="Vb84vHAbqIf9UcVLJnlY">
    <mxGraphModel dx="1368" dy="743" grid="1" gridSize="10" guides="1" tooltips="1" connect="1" arrows="1" fold="1" page="1" pageScale="1" pageWidth="827" pageHeight="1169" math="0" shadow="0">
      <root>
        <mxCell id="0" />
        <mxCell id="1" parent="0" />
        <mxCell id="vBy7JjXJSzl12jpISaor-1" value="inicio" style="ellipse;whiteSpace=wrap;html=1;" vertex="1" parent="1">
          <mxGeometry x="340" y="20" width="120" height="80" as="geometry" />
        </mxCell>
        <mxCell id="vBy7JjXJSzl12jpISaor-2" value="informe um valor" style="shape=display;whiteSpace=wrap;html=1;" vertex="1" parent="1">
          <mxGeometry x="360" y="130" width="80" height="40" as="geometry" />
        </mxCell>
        <mxCell id="vBy7JjXJSzl12jpISaor-3" value="valor" style="shape=manualInput;whiteSpace=wrap;html=1;" vertex="1" parent="1">
          <mxGeometry x="360" y="200" width="80" height="80" as="geometry" />
        </mxCell>
        <mxCell id="vBy7JjXJSzl12jpISaor-20" style="edgeStyle=orthogonalEdgeStyle;rounded=0;orthogonalLoop=1;jettySize=auto;html=1;exitX=0.5;exitY=1;exitDx=0;exitDy=0;entryX=0.5;entryY=0;entryDx=0;entryDy=0;" edge="1" parent="1" source="vBy7JjXJSzl12jpISaor-4" target="vBy7JjXJSzl12jpISaor-19">
          <mxGeometry relative="1" as="geometry" />
        </mxCell>
        <mxCell id="vBy7JjXJSzl12jpISaor-4" value="i = 1" style="shape=parallelogram;perimeter=parallelogramPerimeter;whiteSpace=wrap;html=1;fixedSize=1;" vertex="1" parent="1">
          <mxGeometry x="354" y="440" width="120" height="60" as="geometry" />
        </mxCell>
        <mxCell id="vBy7JjXJSzl12jpISaor-6" value="resultado = valor * i" style="rounded=0;whiteSpace=wrap;html=1;" vertex="1" parent="1">
          <mxGeometry x="354" y="650" width="120" height="60" as="geometry" />
        </mxCell>
        <mxCell id="vBy7JjXJSzl12jpISaor-17" style="edgeStyle=orthogonalEdgeStyle;rounded=0;orthogonalLoop=1;jettySize=auto;html=1;exitX=0;exitY=0;exitDx=40;exitDy=40;exitPerimeter=0;entryX=0.5;entryY=0;entryDx=0;entryDy=0;" edge="1" parent="1" source="vBy7JjXJSzl12jpISaor-7" target="vBy7JjXJSzl12jpISaor-15">
          <mxGeometry relative="1" as="geometry" />
        </mxCell>
        <mxCell id="vBy7JjXJSzl12jpISaor-7" value="valor x i = resultado" style="shape=display;whiteSpace=wrap;html=1;" vertex="1" parent="1">
          <mxGeometry x="374" y="740" width="80" height="40" as="geometry" />
        </mxCell>
        <mxCell id="vBy7JjXJSzl12jpISaor-9" style="edgeStyle=orthogonalEdgeStyle;rounded=0;orthogonalLoop=1;jettySize=auto;html=1;entryX=0;entryY=0.5;entryDx=0;entryDy=0;entryPerimeter=0;" edge="1" parent="1" source="vBy7JjXJSzl12jpISaor-8" target="vBy7JjXJSzl12jpISaor-2">
          <mxGeometry relative="1" as="geometry">
            <mxPoint x="310" y="150" as="targetPoint" />
            <Array as="points">
              <mxPoint x="310" y="350" />
              <mxPoint x="310" y="150" />
            </Array>
          </mxGeometry>
        </mxCell>
        <mxCell id="vBy7JjXJSzl12jpISaor-10" value="nao" style="edgeLabel;html=1;align=center;verticalAlign=middle;resizable=0;points=[];" vertex="1" connectable="0" parent="vBy7JjXJSzl12jpISaor-9">
          <mxGeometry x="0.0189" y="1" relative="1" as="geometry">
            <mxPoint as="offset" />
          </mxGeometry>
        </mxCell>
        <mxCell id="vBy7JjXJSzl12jpISaor-8" value="valor é numérico?" style="rhombus;whiteSpace=wrap;html=1;" vertex="1" parent="1">
          <mxGeometry x="360" y="310" width="80" height="80" as="geometry" />
        </mxCell>
        <mxCell id="vBy7JjXJSzl12jpISaor-11" style="edgeStyle=orthogonalEdgeStyle;rounded=0;orthogonalLoop=1;jettySize=auto;html=1;exitX=0.5;exitY=1;exitDx=0;exitDy=0;entryX=0.393;entryY=0.022;entryDx=0;entryDy=0;entryPerimeter=0;" edge="1" parent="1" source="vBy7JjXJSzl12jpISaor-8" target="vBy7JjXJSzl12jpISaor-4">
          <mxGeometry relative="1" as="geometry" />
        </mxCell>
        <mxCell id="vBy7JjXJSzl12jpISaor-12" value="sim" style="edgeLabel;html=1;align=center;verticalAlign=middle;resizable=0;points=[];" vertex="1" connectable="0" parent="vBy7JjXJSzl12jpISaor-11">
          <mxGeometry x="-0.2147" y="1" relative="1" as="geometry">
            <mxPoint as="offset" />
          </mxGeometry>
        </mxCell>
        <mxCell id="vBy7JjXJSzl12jpISaor-14" style="edgeStyle=orthogonalEdgeStyle;rounded=0;orthogonalLoop=1;jettySize=auto;html=1;exitX=0.5;exitY=1;exitDx=0;exitDy=0;entryX=0;entryY=0;entryDx=40;entryDy=0;entryPerimeter=0;" edge="1" parent="1" source="vBy7JjXJSzl12jpISaor-6" target="vBy7JjXJSzl12jpISaor-7">
          <mxGeometry relative="1" as="geometry" />
        </mxCell>
        <mxCell id="vBy7JjXJSzl12jpISaor-16" style="edgeStyle=orthogonalEdgeStyle;rounded=0;orthogonalLoop=1;jettySize=auto;html=1;exitX=0;exitY=0.5;exitDx=0;exitDy=0;entryX=0;entryY=0.5;entryDx=0;entryDy=0;" edge="1" parent="1" source="vBy7JjXJSzl12jpISaor-15" target="vBy7JjXJSzl12jpISaor-19">
          <mxGeometry relative="1" as="geometry">
            <mxPoint x="290" y="560" as="targetPoint" />
            <Array as="points">
              <mxPoint x="290" y="830" />
              <mxPoint x="290" y="560" />
            </Array>
          </mxGeometry>
        </mxCell>
        <mxCell id="vBy7JjXJSzl12jpISaor-15" value="i = i + 1" style="rounded=0;whiteSpace=wrap;html=1;" vertex="1" parent="1">
          <mxGeometry x="354" y="800" width="120" height="60" as="geometry" />
        </mxCell>
        <mxCell id="vBy7JjXJSzl12jpISaor-24" style="edgeStyle=orthogonalEdgeStyle;rounded=0;orthogonalLoop=1;jettySize=auto;html=1;exitX=1;exitY=0.5;exitDx=0;exitDy=0;entryX=0.5;entryY=0;entryDx=0;entryDy=0;" edge="1" parent="1" source="vBy7JjXJSzl12jpISaor-19" target="vBy7JjXJSzl12jpISaor-26">
          <mxGeometry relative="1" as="geometry">
            <mxPoint x="550.0000000000002" y="559.7931034482758" as="targetPoint" />
          </mxGeometry>
        </mxCell>
        <mxCell id="vBy7JjXJSzl12jpISaor-25" value="nao" style="edgeLabel;html=1;align=center;verticalAlign=middle;resizable=0;points=[];" vertex="1" connectable="0" parent="vBy7JjXJSzl12jpISaor-24">
          <mxGeometry x="-0.0432" y="2" relative="1" as="geometry">
            <mxPoint as="offset" />
          </mxGeometry>
        </mxCell>
        <mxCell id="vBy7JjXJSzl12jpISaor-19" value="i &amp;lt;= 10" style="rhombus;whiteSpace=wrap;html=1;" vertex="1" parent="1">
          <mxGeometry x="370" y="520" width="80" height="80" as="geometry" />
        </mxCell>
        <mxCell id="vBy7JjXJSzl12jpISaor-22" style="edgeStyle=orthogonalEdgeStyle;rounded=0;orthogonalLoop=1;jettySize=auto;html=1;exitX=0.5;exitY=1;exitDx=0;exitDy=0;entryX=0.457;entryY=0.036;entryDx=0;entryDy=0;entryPerimeter=0;" edge="1" parent="1" source="vBy7JjXJSzl12jpISaor-19" target="vBy7JjXJSzl12jpISaor-6">
          <mxGeometry relative="1" as="geometry" />
        </mxCell>
        <mxCell id="vBy7JjXJSzl12jpISaor-23" value="sim" style="edgeLabel;html=1;align=center;verticalAlign=middle;resizable=0;points=[];" vertex="1" connectable="0" parent="vBy7JjXJSzl12jpISaor-22">
          <mxGeometry x="-0.1538" y="-1" relative="1" as="geometry">
            <mxPoint as="offset" />
          </mxGeometry>
        </mxCell>
        <mxCell id="vBy7JjXJSzl12jpISaor-26" value="fim" style="ellipse;whiteSpace=wrap;html=1;" vertex="1" parent="1">
          <mxGeometry x="620" y="580" width="120" height="80" as="geometry" />
        </mxCell>
      </root>
    </mxGraphModel>
  </diagram>
</mxfile>
